HIERARCHY
ROOT Hips
{
  OFFSET 267.745 86.9975 -272.335
  CHANNELS 6 Xposition Yposition Zposition Zrotation Xrotation Yrotation
  JOINT LeftUpLeg
  {
    OFFSET 8.64259 1.95398 -2.38835
    CHANNELS 3 Zrotation Xrotation Yrotation
    JOINT LeftLeg
    {
      OFFSET 43.7702 0 0
      CHANNELS 3 Zrotation Xrotation Yrotation
      JOINT LeftFoot
      {
        OFFSET 40.6238 0 0
        CHANNELS 3 Zrotation Xrotation Yrotation
        JOINT LeftToeBase
        {
          OFFSET 12.7242 0 0
          CHANNELS 3 Zrotation Xrotation Yrotation
          End Site
          {
            OFFSET 0 0 0
          }
        }
      }
    }
  }
  JOINT RightUpLeg
  {
    OFFSET -8.2249 1.95398 -2.59336
    CHANNELS 3 Zrotation Xrotation Yrotation
    JOINT RightLeg
    {
      OFFSET 43.5653 0 0
      CHANNELS 3 Zrotation Xrotation Yrotation
      JOINT RightFoot
      {
        OFFSET 40.6238 0 0
        CHANNELS 3 Zrotation Xrotation Yrotation
        JOINT RightToeBase
        {
          OFFSET 12.7242 0 0
          CHANNELS 3 Zrotation Xrotation Yrotation
          End Site
          {
            OFFSET 0 0 0
          }
        }
      }
    }
  }
  JOINT Spine
  {
    OFFSET 0.165834 0.87714 6.61349
    CHANNELS 3 Zrotation Xrotation Yrotation
    JOINT Spine1
    {
      OFFSET 7.38963 1.71661e-005 0
      CHANNELS 3 Zrotation Xrotation Yrotation
      JOINT Spine2
      {
        OFFSET 11.9445 1.14441e-005 0
        CHANNELS 3 Zrotation Xrotation Yrotation
        JOINT Spine3
        {
          OFFSET 14.7254 4.19617e-005 0
          CHANNELS 3 Zrotation Xrotation Yrotation
          JOINT Spine4
          {
            OFFSET 10.9679 0 0
            CHANNELS 3 Zrotation Xrotation Yrotation
            JOINT RightShoulder
            {
              OFFSET 2.46616 -1.6653 3.69651
              CHANNELS 3 Zrotation Xrotation Yrotation
              JOINT RightArm
              {
                OFFSET 13.0012 0 0
                CHANNELS 3 Zrotation Xrotation Yrotation
                JOINT RightForeArm
                {
                  OFFSET 28.7848 1.52588e-005 0
                  CHANNELS 3 Zrotation Xrotation Yrotation
                  JOINT RightHand
                  {
                    OFFSET 26.5688 1.52588e-005 0
                    CHANNELS 3 Zrotation Xrotation Yrotation
                    End Site
                    {
                      OFFSET 0 0 0
                    }
                  }
                }
              }
            }
            JOINT LeftShoulder
            {
              OFFSET 2.38034 -1.29275 -3.7523
              CHANNELS 3 Zrotation Xrotation Yrotation
              JOINT LeftArm
              {
                OFFSET 16.3182 6.10352e-005 0
                CHANNELS 3 Zrotation Xrotation Yrotation
                JOINT LeftForeArm
                {
                  OFFSET 27.0901 0 0
                  CHANNELS 3 Zrotation Xrotation Yrotation
                  JOINT LeftHand
                  {
                    OFFSET 24.5451 1.52588e-005 0
                    CHANNELS 3 Zrotation Xrotation Yrotation
                    End Site
                    {
                      OFFSET 0 0 0
                    }
                  }
                }
              }
            }
            JOINT Neck
            {
              OFFSET 5.0226 -0.0266342 0
              CHANNELS 3 Zrotation Xrotation Yrotation
              JOINT Head
              {
                OFFSET 6.69364 2.86102e-005 0
                CHANNELS 3 Zrotation Xrotation Yrotation
                End Site
                {
                  OFFSET 0 0 0
                }
              }
            }
          }
        }
      }
    }
  }
}
MOTION
Frames:	7
Frame Time:	0.0416667
47.7005 73.3828 -12.3506 -128.777 -53.2377 -136.402 176.514 26.44 101.139 -47.1218 24.2948 7.20193 45.5396 -8.14997 -6.51677 65.998 -1.61836 12.0645 171.64 36.7582 94.649 -92.0172 -19.3898 -1.5484 57.2858 -1.69644 -9.32109 53.2924 -4.74436 9.81504 -0.0481133 10.6215 -88.7222 5.61927 0.436901 2.49997 -6.05396 0.546478 2.47834 -28.57 -0.334382 2.51573 -8.55731 -0.334385 2.51572 100.758 -49.7863 -84.3706 26.6348 -16.7328 -5.44832 -0.0337692 3.65042 -54.9369 -15.1485 -0.369235 -2.4096 -85.7768 -44.9035 84.0658 -3.08407 -5.02136 -19.603 -2.84726 6.52803 -10.8452 4.99317 -0.425624 -9.57266 -4.69293 -14.9 -2.36887 -6.48925 -14.1064 -23.4843 
49.2366 71.3746 -3.17923 -115.076 -49.2316 -124.575 179.576 32.5787 100.533 -63.6811 21.7945 4.64116 56.5794 -0.0745985 7.22339 63.9558 -1.76844 11.1879 171.797 45.976 92.2683 -102.009 -18.515 -2.61268 53.1123 2.2709 -5.83455 47.8378 -2.98407 19.9612 0.0111539 10.7992 -88.5804 5.25948 0.610105 2.77319 -6.41423 0.731513 2.74367 -28.9256 -0.251213 2.82832 -8.91294 -0.251193 2.82833 100.724 -47.8028 -84.4793 25.8526 -22.3328 -9.55125 -16.6134 9.10667 -88.3544 -16.7745 -0.060107 -4.86492 -86.8294 -45.8816 82.555 -4.53018 -9.23186 -27.8954 -1.45236 5.52161 -9.27121 6.72348 -0.524806 -9.83459 3.52935 -14.9688 -0.657837 -6.51672 -14.1513 -23.8016 
49.1998 71.6769 3.06495 -106.972 -51.6919 -118.965 -178.17 36.8048 98.0873 -68.4833 22.3128 3.06459 61.6752 4.8364 10.159 65.8262 -1.42489 12.9946 159.589 56.1158 96.9917 -98.2239 -18.4109 -0.931407 56.6651 2.29089 2.04264 47.9352 -3.08431 18.6124 -0.369043 11.2254 -88.6335 4.4173 -0.181332 2.68047 -7.25639 -0.0632274 2.68584 -29.7718 -0.978311 2.50226 -9.75912 -0.978298 2.50226 100.162 -49.5936 -85.307 25.6261 -23.2521 -12.4175 -22.889 14.9149 -106.776 -19.9238 -0.16327 -4.31029 -89.7967 -47.2439 78.1817 -10.1168 -12.924 -51.1663 1.17827 10.116 -6.13004 7.50159 -0.55807 -9.79051 14.4487 -15.1901 1.31155 -6.9152 -14.5495 -24.1528 
46.4362 74.7297 8.37589 -100.774 -55.485 -116.536 -175.978 34.2222 93.9527 -62.9407 22.9763 1.92552 64.5166 7.55825 10.3362 65.9482 -1.11632 14.4254 146.32 58.5802 102.71 -86.7141 -13.0268 2.68256 63.8743 -2.7401 0.753026 50.6965 -3.2674 19.6685 -0.956614 11.4096 -88.6559 4.06228 -1.36845 2.63756 -7.61078 -1.25107 2.69517 -30.1365 -2.0977 2.10467 -10.1239 -2.09771 2.10467 100.409 -52.6675 -84.8236 24.9916 -28.1091 -10.447 -27.3558 14.3204 -93.6234 -20.1432 -0.275725 -3.58986 -91.7236 -44.5405 74.4831 -18.1978 -8.32464 -69.7168 3.94056 10.1997 -13.4989 6.55432 -0.533253 -10.055 21.477 -15.6006 2.91702 -8.58683 -15.1021 -23.4605 
40.3147 78.1848 14.4033 -92.2462 -53.7135 -110.269 -174.375 26.8177 94.8017 -54.6612 22.92 1.65726 66.508 7.29899 5.45209 67.3481 -0.89738 15.3128 146.924 55.6407 103.179 -79.0481 -13.8331 4.91781 59.8996 -1.81538 -4.81477 53.821 -3.356 20.6545 -1.31066 11.0243 -88.7586 4.84078 -2.10923 2.46619 -6.83097 -1.99868 2.55657 -29.3694 -2.75278 1.71834 -9.35679 -2.75278 1.71832 99.1702 -53.746 -86.6341 26.795 -32.9208 -4.27893 -22.4437 6.28076 -77.5313 -27.4731 -0.899149 -1.43981 -90.4946 -41.7876 75.7413 -13.3617 -3.7115 -72.5196 6.66361 12.5073 -31.1981 8.79814 -0.79168 -11.5305 22.3788 -13.9905 6.50998 -9.77444 -14.4852 -23.5173 
31.7146 80.3907 21.4288 -85.46 -46.1264 -104.461 -179.315 23.2466 97.0009 -58.0704 17.8879 4.4299 55.1924 -3.25726 -7.84802 72.965 -0.801398 14.6941 157.543 45.6891 97.6725 -73.5544 -11.3388 4.88674 53.8062 6.81964 9.16904 25.7211 -0.759664 11.9467 -1.00684 10.4235 -89.1587 6.03809 -1.65747 1.70717 -5.63297 -1.58074 1.77845 -28.1724 -2.09388 1.13009 -8.15978 -2.09389 1.13006 97.4135 -53.9408 -89.2325 29.9835 -28.1756 4.15182 -13.1883 2.66546 -66.4016 -24.0153 -0.776922 -1.45432 -89.5155 -43.6788 77.8086 -10.1384 -0.0951018 -57.8791 8.13851 9.45033 -44.0748 4.31162 -0.499134 -11.4115 19.0269 -11.7817 6.55272 -8.63321 -12.634 -19.4086 
22.0305 81.5876 27.5275 -82.1855 -37.7543 -101.058 171.136 28.4672 96.0146 -77.0992 12.1853 5.94294 51.7119 -1.31516 11.7826 59.4148 -1.84206 10.7905 163.509 32.2526 96.3119 -66.8364 -15.4929 6.38842 64.4805 0.349517 6.85527 28.4373 -1.21322 14.6052 -0.570524 10.1863 -89.6835 6.50234 -1.00491 0.65773 -5.16844 -0.974977 0.701316 -27.7058 -1.15613 0.325292 -7.69312 -1.1561 0.325298 96.9261 -54.2746 -89.9258 26.653 -21.591 1.14411 -4.00493 1.72385 -56.5641 -23.3209 -0.409447 -3.382 -88.0596 -48.6125 81.1181 -8.37499 1.36168 -37.9085 5.2957 12.3856 -32.5703 4.44087 -0.518828 -11.6455 21.705 -9.59673 4.39741 -11.8199 -9.78922 -13.2127 
